<?xml version="1.0" standalone="no"?>
<!DOCTYPE svg PUBLIC "-//W3C//DTD SVG 20010904//EN"
 "http://www.w3.org/TR/2001/REC-SVG-20010904/DTD/svg10.dtd">
<svg version="1.0" xmlns="http://www.w3.org/2000/svg"
 width="407.000000pt" height="407.000000pt" viewBox="0 0 407.000000 407.000000"
 preserveAspectRatio="xMidYMid meet">
<metadata>
Created by potrace 1.11, written by Peter Selinger 2001-2013
</metadata>
<g transform="translate(0.000000,407.000000) scale(0.100000,-0.100000)"
fill="#000000" stroke="none">
<path d="M2029 3870 c-44 -13 -92 -43 -419 -260 -50 -33 -201 -131 -361 -233
-101 -65 -344 -222 -539 -347 -195 -126 -426 -274 -512 -330 -176 -113 -167
-97 -120 -203 22 -50 108 -187 117 -187 3 0 31 13 63 29 l57 29 0 -1172 c-1
-644 1 -1177 3 -1183 3 -10 363 -13 1713 -13 l1709 0 0 703 c1 1325 3 1692 7
1699 2 4 38 -15 80 -42 41 -28 79 -50 84 -50 7 0 38 39 66 85 27 44 75 152 80
181 4 21 1 33 -9 37 -14 5 -61 35 -365 233 -68 43 -130 84 -139 89 -10 6 -60
38 -113 73 l-96 63 -2 97 c0 53 -2 216 -4 360 -1 180 -6 265 -13 268 -6 2 -75
5 -153 6 -135 3 -142 2 -145 -17 -2 -11 -3 -125 -3 -252 0 -189 -3 -233 -13
-233 -17 0 -125 58 -215 116 -37 24 -72 44 -76 44 -5 0 -11 3 -13 8 -3 7 -323
223 -343 231 -5 2 -14 8 -20 13 -26 22 -198 139 -224 153 -33 16 -43 17 -82 5z"/>
</g>
</svg>
